<svg height="511pt" viewBox="-57 0 511 511.99926" width="511pt" xmlns="http://www.w3.org/2000/svg"><path d="m288.164062 512h-178.886718c-34.28125 0-62.070313-27.789062-62.070313-62.070312v-182.636719h303.027344v182.636719c0 34.28125-27.789063 62.070312-62.070313 62.070312zm0 0" fill="#c5efed"/><path d="m47.207031 267.292969v182.636719c0 34.28125 27.789063 62.070312 62.070313 62.070312h54.414062c-18.707031-11.953125-16.890625-46.832031-16.890625-46.832031v-26.886719c0-29.011719 18.890625-54.804688 46.6875-63.109375 74.769531-22.34375 98.804688-82.683594 105.726563-107.878906zm0 0" fill="#b7e2e0"/><path d="m206.445312 389.648438h-15.449218v-186.410157c0-34.851562-15.558594-67.390625-42.679688-89.277343l-78.902344-63.664063 9.707032-12.027344 78.898437 63.664063c30.777344 24.832031 48.425781 61.757812 48.425781 101.304687zm0 0" fill="#8dc971"/><path d="m206.445312 389.648438v-186.410157c0-29.277343-9.671874-57.113281-27.183593-79.675781-3.042969 3.796875-6.277344 8.125-9.582031 13 13.757812 19.21875 21.316406 42.390625 21.316406 66.675781v186.410157zm0 0" fill="#7fb762"/><path d="m206.445312 389.648438h-15.449218v-186.410157c0-39.546875 17.648437-76.46875 48.425781-101.304687l78.898437-63.664063 9.707032 12.027344-78.898438 63.664063c-27.125 21.886718-42.683594 54.425781-42.683594 89.277343zm0 0" fill="#9ad880"/><path d="m47.207031 348.503906v101.425782c0 34.28125 27.789063 62.070312 62.070313 62.070312h178.886718c34.28125 0 62.070313-27.789062 62.070313-62.070312v-101.425782zm0 0" fill="#8ed7e8"/><path d="m47.207031 348.503906v101.425782c0 34.28125 27.789063 62.070312 62.070313 62.070312h54.414062c-18.707031-11.953125-16.890625-46.832031-16.890625-46.832031v-26.886719c0-29.011719 18.890625-54.804688 46.6875-63.109375 21.304688-6.367187 38.5-15.824219 52.34375-26.667969zm0 0" fill="#7ac1dd"/><path d="m326.710938 143.058594c13.046874-8.6875 52.910156-39.238282 57.246093-90.675782 1.359375-16.128906-6.960937-31.554687-21.1875-39.28125-45.359375-24.632812-92.785156-8.105468-107.214843-1.976562-28.042969 11.921875-29.550782 34.71875-19.683594 53.011719 7.617187 14.125 19.847656 18.136719 30.421875 18.523437 6.070312.21875 9.628906 6.847656 6.464843 12.035156-5.496093 9.011719-8.851562 21.429688-1.15625 35.691407 9.867188 18.296875 29.742188 29.558593 55.109376 12.671875zm0 0" fill="#7fb762"/><path d="m272.757812 94.695312c-5.496093 9.007813-8.851562 21.425782-1.15625 35.691407 9.867188 18.296875 29.742188 29.558593 55.109376 12.671875 13.046874-8.6875 52.910156-39.238282 57.246093-90.675782.65625-7.804687-.949219-15.441406-4.398437-22.125l-106.8125 56.140626c1.476562 2.390624 1.691406 5.542968.011718 8.296874zm0 0" fill="#6ca04d"/><path d="m70.730469 143.058594c-13.046875-8.6875-52.910157-39.238282-57.246094-90.675782-1.359375-16.128906 6.960937-31.554687 21.1875-39.28125 45.359375-24.632812 92.789063-8.105468 107.214844-1.976562 28.042969 11.921875 29.550781 34.71875 19.683593 53.011719-7.617187 14.125-19.847656 18.136719-30.417968 18.523437-6.074219.21875-9.632813 6.847656-6.464844 12.035156 5.496094 9.011719 8.847656 21.429688 1.152344 35.691407-9.863282 18.296875-29.742188 29.558593-55.109375 12.671875zm0 0" fill="#7fb762"/><path d="m124.683594 94.695312c5.496094 9.007813 8.851562 21.425782 1.15625 35.691407-9.867188 18.296875-29.742188 29.558593-55.109375 12.671875-13.046875-8.6875-52.910157-39.238282-57.246094-90.675782-.65625-7.804687.953125-15.445312 4.398437-22.125l106.8125 56.136719c-1.476562 2.394531-1.691406 5.546875-.011718 8.300781zm0 0" fill="#6ca04d"/><path d="m359.261719 304.972656h-321.082031c-20.722657 0-37.679688-16.957031-37.679688-37.679687 0-20.722657 16.957031-37.675781 37.679688-37.675781h321.082031c20.726562 0 37.679687 16.953124 37.679687 37.675781 0 20.722656-16.953125 37.679687-37.679687 37.679687zm0 0" fill="#d4f9f6"/><path d="m83.589844 267.292969c0-20.722657 16.957031-37.679688 37.679687-37.679688h-83.089843c-20.722657 0-37.679688 16.957031-37.679688 37.679688 0 20.722656 16.957031 37.679687 37.679688 37.679687h83.089843c-20.722656 0-37.679687-16.957031-37.679687-37.679687zm0 0" fill="#c5efed"/><path d="m198.722656 469.527344c-15.988281 0-28.949218-12.960938-28.949218-28.949219v-21.046875c0-4.363281 3.535156-7.902344 7.902343-7.902344h42.089844c4.367187 0 7.90625 3.539063 7.90625 7.902344v21.046875c-.003906 15.988281-12.960937 28.949219-28.949219 28.949219zm0 0" fill="#57565c"/><path d="m132.765625 440.578125c0-13.578125-13.824219-24.589844-30.878906-24.589844-17.050781 0-30.875 11.011719-30.875 24.589844 0 13.582031 13.824219 24.589844 30.875 24.589844 17.054687 0 30.878906-11.007813 30.878906-24.589844zm0 0" fill="#ffa6bb"/><path d="m326.429688 440.578125c0-13.578125-13.824219-24.589844-30.875-24.589844-17.054688 0-30.878907 11.011719-30.878907 24.589844 0 13.582031 13.824219 24.589844 30.878907 24.589844 17.050781 0 30.875-11.007813 30.875-24.589844zm0 0" fill="#ffa6bb"/><g fill="#57565c"><path d="m281.8125 427.082031c-4.269531 0-7.726562-3.460937-7.726562-7.726562v-12.828125c0-4.265625 3.457031-7.726563 7.726562-7.726563 4.265625 0 7.726562 3.460938 7.726562 7.726563v12.828125c0 4.265625-3.460937 7.726562-7.726562 7.726562zm0 0"/><path d="m115.628906 427.082031c-4.265625 0-7.726562-3.460937-7.726562-7.726562v-12.828125c0-4.265625 3.460937-7.726563 7.726562-7.726563 4.269532 0 7.726563 3.460938 7.726563 7.726563v12.828125c0 4.265625-3.457031 7.726562-7.726563 7.726562zm0 0"/></g></svg>